<svg width="73" height="47" viewBox="0 0 73 47" fill="none" xmlns="http://www.w3.org/2000/svg">
<path d="M72.9941 32.3763C63.2288 22.6847 54.1494 13.1609 44.463 4.26973C39.3858 -0.390569 34.6266 -0.222747 29.1471 3.97204C24.2702 7.70653 19.9281 12.1086 14.7542 16.7495C23.2511 18.6968 28.2277 23.977 33.3268 29.2252C38.1699 34.2085 43.2574 38.9797 48.4455 43.6214C52.2092 46.9886 56.6711 46.9164 60.4593 43.9105C64.913 40.3785 68.856 36.232 72.9941 32.3763ZM5.62643 44.9081C11.298 39.4151 16.6885 34.1948 22.1401 28.9153C18.8245 23.2306 9.3685 23.0888 4.71603 27.6315C0.430555 31.8159 -1.21493 39.9118 5.62643 44.9081Z" fill="#31C8E0"/>
</svg>